<?xml version="1.0" encoding="UTF-8" standalone="no"?><svg xmlns="http://www.w3.org/2000/svg" xmlns:xlink="http://www.w3.org/1999/xlink" fill="#fefffe" height="120.4" preserveAspectRatio="xMidYMid meet" version="1" viewBox="12.0 3.6 104.1 120.4" width="104.1" zoomAndPan="magnify"><g id="change1_1"><path d="M36.562,39.438c1.023,0,2.048-0.391,2.828-1.172L60,17.657v83.672c0,2.209,1.791,4,4,4s4-1.791,4-4V17.657l20.609,20.608 c1.561,1.563,4.096,1.563,5.656,0c1.563-1.562,1.563-4.095,0-5.656L66.828,5.172c-1.563-1.563-4.096-1.563-5.656,0L33.733,32.609 c-1.563,1.562-1.563,4.095,0,5.656C34.515,39.047,35.538,39.438,36.562,39.438z"/><path d="M112.043,77.777c-2.209,0-4,1.791-4,4v20.807c0,3.584-1.396,6.952-3.931,9.486c-2.533,2.534-5.901,3.93-9.485,3.93H33.372 c-3.584,0-6.952-1.396-9.486-3.93c-2.533-2.534-3.929-5.903-3.929-9.486V81.777c0-2.209-1.791-4-4-4s-4,1.791-4,4v20.807 c0,5.721,2.228,11.099,6.271,15.143c4.045,4.046,9.423,6.273,15.144,6.273h61.255c5.721,0,11.099-2.228,15.143-6.272 c4.046-4.045,6.273-9.423,6.273-15.144V81.777C116.043,79.568,114.252,77.777,112.043,77.777z"/></g></svg>